name baseline.mot
datacolumns 19
datarows 39
range 6.261650 6.324972
endheader
time	ground_force1_vx	ground_force1_vy	ground_force1_vz	ground_force1_px	ground_force1_py	ground_force1_pz	ground_force2_vx	ground_force2_vy	ground_force2_vz	ground_force2_px	ground_force2_py	ground_force2_pz	ground_torque1_x	ground_torque1_y	ground_torque1_z	ground_torque2_x	ground_torque2_y	ground_torque2_z	
6.261650	38.247344	721.734645	71.089904	0.146233	0.000000	0.160560	0.000000	0.000000	0.000000	0.000000	0.000000	0.000000	0.000000	7.768789	0.000000	0.000000	0.000000	0.000000	
6.263307	37.682102	719.484160	70.706866	0.145298	0.000000	0.160488	0.000000	0.000000	0.000000	0.000000	0.000000	0.000000	0.000000	7.739120	0.000000	0.000000	0.000000	0.000000	
6.264979	37.123963	717.264933	70.317275	0.144376	0.000000	0.160414	0.000000	0.000000	0.000000	0.000000	0.000000	0.000000	0.000000	7.706700	0.000000	0.000000	0.000000	0.000000	
6.266639	36.573149	715.080749	69.921871	0.143465	0.000000	0.160336	0.000000	0.000000	0.000000	0.000000	0.000000	0.000000	0.000000	7.671695	0.000000	0.000000	0.000000	0.000000	
6.268311	36.029861	712.935265	69.521407	0.142567	0.000000	0.160256	0.000000	0.000000	0.000000	0.000000	0.000000	0.000000	0.000000	7.634273	0.000000	0.000000	0.000000	0.000000	
6.269977	35.494270	710.832004	69.116644	0.141682	0.000000	0.160174	0.000000	0.000000	0.000000	0.000000	0.000000	0.000000	0.000000	7.594607	0.000000	0.000000	0.000000	0.000000	
6.271645	34.966519	708.774345	68.708349	0.140810	0.000000	0.160088	0.000000	0.000000	0.000000	0.000000	0.000000	0.000000	0.000000	7.552870	0.000000	0.000000	0.000000	0.000000	
6.273312	34.446724	706.765523	68.297293	0.139952	0.000000	0.160001	0.000000	0.000000	0.000000	0.000000	0.000000	0.000000	0.000000	7.509234	0.000000	0.000000	0.000000	0.000000	
6.274980	33.934968	704.808616	67.884243	0.139107	0.000000	0.159911	0.000000	0.000000	0.000000	0.000000	0.000000	0.000000	0.000000	7.463874	0.000000	0.000000	0.000000	0.000000	
6.276647	33.431306	702.906547	67.469964	0.138276	0.000000	0.159819	0.000000	0.000000	0.000000	0.000000	0.000000	0.000000	0.000000	7.416963	0.000000	0.000000	0.000000	0.000000	
6.278313	32.935760	701.062074	67.055213	0.137459	0.000000	0.159725	0.000000	0.000000	0.000000	0.000000	0.000000	0.000000	0.000000	7.368675	0.000000	0.000000	0.000000	0.000000	
6.279986	32.448320	699.277790	66.640739	0.136655	0.000000	0.159629	0.000000	0.000000	0.000000	0.000000	0.000000	0.000000	0.000000	7.319181	0.000000	0.000000	0.000000	0.000000	
6.281657	31.968946	697.556117	66.227275	0.135863	0.000000	0.159531	0.000000	0.000000	0.000000	0.000000	0.000000	0.000000	0.000000	7.268652	0.000000	0.000000	0.000000	0.000000	
6.283310	31.497565	695.899306	65.815542	0.135083	0.000000	0.159432	0.000000	0.000000	0.000000	0.000000	0.000000	0.000000	0.000000	7.217258	0.000000	0.000000	0.000000	0.000000	
6.285004	31.034073	694.309430	65.406242	0.134315	0.000000	0.159331	0.000000	0.000000	0.000000	0.000000	0.000000	0.000000	0.000000	7.165168	0.000000	0.000000	0.000000	0.000000	
6.286655	30.578338	692.788387	65.000057	0.133558	0.000000	0.159229	0.000000	0.000000	0.000000	0.000000	0.000000	0.000000	0.000000	7.112546	0.000000	0.000000	0.000000	0.000000	
6.288312	30.130194	691.337899	64.597648	0.132810	0.000000	0.159126	0.000000	0.000000	0.000000	0.000000	0.000000	0.000000	0.000000	7.059559	0.000000	0.000000	0.000000	0.000000	
6.290002	29.689451	689.959505	64.199650	0.132072	0.000000	0.159022	0.000000	0.000000	0.000000	0.000000	0.000000	0.000000	0.000000	7.006368	0.000000	0.000000	0.000000	0.000000	
6.291650	29.255889	688.654569	63.806675	0.131341	0.000000	0.158917	0.000000	0.000000	0.000000	0.000000	0.000000	0.000000	0.000000	6.953133	0.000000	0.000000	0.000000	0.000000	
6.293309	28.829263	687.424274	63.419307	0.130617	0.000000	0.158811	0.000000	0.000000	0.000000	0.000000	0.000000	0.000000	0.000000	6.900015	0.000000	0.000000	0.000000	0.000000	
6.294998	28.409301	686.269625	63.038101	0.129898	0.000000	0.158706	0.000000	0.000000	0.000000	0.000000	0.000000	0.000000	0.000000	6.847169	0.000000	0.000000	0.000000	0.000000	
6.296657	27.995713	685.191455	62.663582	0.129184	0.000000	0.158600	0.000000	0.000000	0.000000	0.000000	0.000000	0.000000	0.000000	6.794749	0.000000	0.000000	0.000000	0.000000	
6.298312	27.588182	684.190416	62.296245	0.128472	0.000000	0.158493	0.000000	0.000000	0.000000	0.000000	0.000000	0.000000	0.000000	6.742908	0.000000	0.000000	0.000000	0.000000	
6.299986	27.186377	683.266992	61.936554	0.127763	0.000000	0.158387	0.000000	0.000000	0.000000	0.000000	0.000000	0.000000	0.000000	6.691795	0.000000	0.000000	0.000000	0.000000	
6.301651	26.789946	682.421498	61.584937	0.127054	0.000000	0.158282	0.000000	0.000000	0.000000	0.000000	0.000000	0.000000	0.000000	6.641558	0.000000	0.000000	0.000000	0.000000	
6.303322	26.398524	681.654078	61.241794	0.126343	0.000000	0.158176	0.000000	0.000000	0.000000	0.000000	0.000000	0.000000	0.000000	6.592342	0.000000	0.000000	0.000000	0.000000	
6.304980	26.011732	680.964718	60.907487	0.125631	0.000000	0.158071	0.000000	0.000000	0.000000	0.000000	0.000000	0.000000	0.000000	6.544288	0.000000	0.000000	0.000000	0.000000	
6.306642	25.629181	680.353243	60.582349	0.124915	0.000000	0.157967	0.000000	0.000000	0.000000	0.000000	0.000000	0.000000	0.000000	6.497536	0.000000	0.000000	0.000000	0.000000	
6.308310	25.250472	679.819324	60.266675	0.124194	0.000000	0.157864	0.000000	0.000000	0.000000	0.000000	0.000000	0.000000	0.000000	6.452222	0.000000	0.000000	0.000000	0.000000	
6.309973	24.875201	679.362481	59.960729	0.123467	0.000000	0.157762	0.000000	0.000000	0.000000	0.000000	0.000000	0.000000	0.000000	6.408477	0.000000	0.000000	0.000000	0.000000	
6.311644	24.502958	678.982090	59.664742	0.122733	0.000000	0.157660	0.000000	0.000000	0.000000	0.000000	0.000000	0.000000	0.000000	6.366432	0.000000	0.000000	0.000000	0.000000	
6.313308	24.133333	678.677387	59.378910	0.121990	0.000000	0.157560	0.000000	0.000000	0.000000	0.000000	0.000000	0.000000	0.000000	6.326211	0.000000	0.000000	0.000000	0.000000	
6.314974	23.765914	678.447477	59.103397	0.121238	0.000000	0.157462	0.000000	0.000000	0.000000	0.000000	0.000000	0.000000	0.000000	6.287937	0.000000	0.000000	0.000000	0.000000	
6.316651	23.400293	678.291334	58.838337	0.120476	0.000000	0.157364	0.000000	0.000000	0.000000	0.000000	0.000000	0.000000	0.000000	6.251727	0.000000	0.000000	0.000000	0.000000	
6.318310	23.036062	678.207811	58.583830	0.119702	0.000000	0.157268	0.000000	0.000000	0.000000	0.000000	0.000000	0.000000	0.000000	6.217694	0.000000	0.000000	0.000000	0.000000	
6.320008	22.672824	678.195646	58.339947	0.118916	0.000000	0.157174	0.000000	0.000000	0.000000	0.000000	0.000000	0.000000	0.000000	6.185946	0.000000	0.000000	0.000000	0.000000	
6.321645	22.310185	678.253469	58.106729	0.118117	0.000000	0.157081	0.000000	0.000000	0.000000	0.000000	0.000000	0.000000	0.000000	6.156589	0.000000	0.000000	0.000000	0.000000	
6.323309	21.947763	678.379809	57.884189	0.117305	0.000000	0.156990	0.000000	0.000000	0.000000	0.000000	0.000000	0.000000	0.000000	6.129720	0.000000	0.000000	0.000000	0.000000	
6.324972	21.585185	678.573097	57.672312	0.116479	0.000000	0.156900	0.000000	0.000000	0.000000	0.000000	0.000000	0.000000	0.000000	6.105434	0.000000	0.000000	0.000000	0.000000	
